<svg xmlns="http://www.w3.org/2000/svg" version="1.1" xmlns:xlink="http://www.w3.org/1999/xlink" xmlns:svgjs="http://svgjs.dev/svgjs" width="128" height="128" viewBox="0 0 128 128"><g transform="matrix(0.8046875,0,0,0.8046875,12.333870967741937,12.333870967741937)"><svg viewBox="0 0 155 155" data-background-color="#ffffff" preserveAspectRatio="xMidYMid meet" height="128" width="128" xmlns="http://www.w3.org/2000/svg" xmlns:xlink="http://www.w3.org/1999/xlink"><g id="tight-bounds" transform="matrix(1,0,0,1,0.25,0.25)"><svg viewBox="0 0 154.5 154.5" height="154.5" width="154.5"><g><svg></svg></g><g><svg viewBox="0 0 154.5 154.5" height="154.5" width="154.5"><g transform="matrix(1,0,0,1,57.1137732075,47.746371)"><svg viewBox="0 0 40.272453584999994 59.00725799999999" height="59.00725799999999" width="40.272453584999994"><g><svg viewBox="0 0 40.272453584999994 59.00725799999999" height="59.00725799999999" width="40.272453584999994"><g><svg viewBox="0 0 40.272453584999994 59.00725799999999" height="59.00725799999999" width="40.272453584999994"><g id="textblocktransform"><svg viewBox="0 0 40.272453584999994 59.00725799999999" height="59.00725799999999" width="40.272453584999994" id="textblock"><g><svg viewBox="0 0 40.272453584999994 59.00725799999999" height="59.00725799999999" width="40.272453584999994"><g transform="matrix(1,0,0,1,0,0)"><svg width="40.272453584999994" viewBox="0.7 -19.15 13.65 20" height="59.00725799999999" data-palette-color="#b81d33"><path d="M1.6 0.85L1.6 0.85Q1.2 0.85 0.95 0.53 0.7 0.2 0.7-0.15L0.7-0.15Q0.7-0.75 1.25-0.75L1.25-0.75Q1.85-0.75 3.08-1 4.3-1.25 5.63-1.68 6.95-2.1 7.9-2.7 8.85-3.3 8.85-4L8.85-4Q8.85-4.65 8.13-5.33 7.4-6 6.35-6.7 5.3-7.4 4.23-8.15 3.15-8.9 2.43-9.73 1.7-10.55 1.7-11.5L1.7-11.5Q1.7-11.9 1.83-12.3 1.95-12.7 2.3-13.1L2.3-13.1Q3.8-15 5.58-16.18 7.35-17.35 8.9-17.98 10.45-18.6 11.25-18.9L11.25-18.9Q11.5-19 11.85-19.07 12.2-19.15 12.55-19.15L12.55-19.15Q13.25-19.15 13.8-18.73 14.35-18.3 14.35-17.15L14.35-17.15Q14.3-16.65 13.95-15.88 13.6-15.1 13.08-14.3 12.55-13.5 12.05-12.98 11.55-12.45 11.2-12.45L11.2-12.45Q11-12.45 11-12.75L11-12.75Q11-13.2 11.28-13.9 11.55-14.6 11.83-15.28 12.1-15.95 12.1-16.35L12.1-16.35Q12.1-17.1 11.2-17.1L11.2-17.1Q10.85-17.1 10.43-17.03 10-16.95 9.55-16.85L9.55-16.85Q9.25-16.8 8.4-16.43 7.55-16.05 6.6-15.45 5.65-14.85 4.95-14.08 4.25-13.3 4.25-12.4L4.25-12.4Q4.25-11.85 4.5-11.4L4.5-11.4Q5.1-10.2 6.15-9.53 7.2-8.85 8.25-8.33 9.3-7.8 10.03-7.18 10.75-6.55 10.75-5.4L10.75-5.4Q10.75-4.2 9.75-3.08 8.75-1.95 7.23-1.07 5.7-0.2 4.17 0.33 2.65 0.85 1.6 0.85Z" opacity="1" transform="matrix(1,0,0,1,0,0)" fill="#000000" class="wordmark-text-0" data-fill-palette-color="primary" id="text-0"></path></svg></g></svg></g></svg></g></svg></g></svg></g></svg></g><g><path d="M49.554 33.816A20.136 20.136 0 0 1 104.946 33.816L99.625 33.816A14.815 14.815 0 0 0 54.875 33.816L49.554 33.816M49.554 120.684A20.136 20.136 0 0 0 104.946 120.684L99.625 120.684A14.815 14.815 0 0 1 54.875 120.684L49.554 120.684" fill="#000000" stroke="transparent" data-fill-palette-color="tertiary"></path></g></svg></g><defs></defs></svg><rect width="154.5" height="154.5" fill="none" stroke="none" visibility="hidden"></rect></g></svg></g></svg>